HIERARCHY
ROOT Hips
{
  OFFSET 267.745 86.9975 -272.335
  CHANNELS 6 Xposition Yposition Zposition Zrotation Xrotation Yrotation
  JOINT LeftUpLeg
  {
    OFFSET 8.64259 1.95398 -2.38835
    CHANNELS 3 Zrotation Xrotation Yrotation
    JOINT LeftLeg
    {
      OFFSET 43.7702 0 0
      CHANNELS 3 Zrotation Xrotation Yrotation
      JOINT LeftFoot
      {
        OFFSET 40.6238 0 0
        CHANNELS 3 Zrotation Xrotation Yrotation
        JOINT LeftToeBase
        {
          OFFSET 12.7242 0 0
          CHANNELS 3 Zrotation Xrotation Yrotation
          End Site
          {
            OFFSET 0 0 0
          }
        }
      }
    }
  }
  JOINT RightUpLeg
  {
    OFFSET -8.2249 1.95398 -2.59336
    CHANNELS 3 Zrotation Xrotation Yrotation
    JOINT RightLeg
    {
      OFFSET 43.5653 0 0
      CHANNELS 3 Zrotation Xrotation Yrotation
      JOINT RightFoot
      {
        OFFSET 40.6238 0 0
        CHANNELS 3 Zrotation Xrotation Yrotation
        JOINT RightToeBase
        {
          OFFSET 12.7242 0 0
          CHANNELS 3 Zrotation Xrotation Yrotation
          End Site
          {
            OFFSET 0 0 0
          }
        }
      }
    }
  }
  JOINT Spine
  {
    OFFSET 0.165834 0.87714 6.61349
    CHANNELS 3 Zrotation Xrotation Yrotation
    JOINT Spine1
    {
      OFFSET 7.38963 1.71661e-005 0
      CHANNELS 3 Zrotation Xrotation Yrotation
      JOINT Spine2
      {
        OFFSET 11.9445 1.14441e-005 0
        CHANNELS 3 Zrotation Xrotation Yrotation
        JOINT Spine3
        {
          OFFSET 14.7254 4.19617e-005 0
          CHANNELS 3 Zrotation Xrotation Yrotation
          JOINT Spine4
          {
            OFFSET 10.9679 0 0
            CHANNELS 3 Zrotation Xrotation Yrotation
            JOINT RightShoulder
            {
              OFFSET 2.46616 -1.6653 3.69651
              CHANNELS 3 Zrotation Xrotation Yrotation
              JOINT RightArm
              {
                OFFSET 13.0012 0 0
                CHANNELS 3 Zrotation Xrotation Yrotation
                JOINT RightForeArm
                {
                  OFFSET 28.7848 1.52588e-005 0
                  CHANNELS 3 Zrotation Xrotation Yrotation
                  JOINT RightHand
                  {
                    OFFSET 26.5688 1.52588e-005 0
                    CHANNELS 3 Zrotation Xrotation Yrotation
                    End Site
                    {
                      OFFSET 0 0 0
                    }
                  }
                }
              }
            }
            JOINT LeftShoulder
            {
              OFFSET 2.38034 -1.29275 -3.7523
              CHANNELS 3 Zrotation Xrotation Yrotation
              JOINT LeftArm
              {
                OFFSET 16.3182 6.10352e-005 0
                CHANNELS 3 Zrotation Xrotation Yrotation
                JOINT LeftForeArm
                {
                  OFFSET 27.0901 0 0
                  CHANNELS 3 Zrotation Xrotation Yrotation
                  JOINT LeftHand
                  {
                    OFFSET 24.5451 1.52588e-005 0
                    CHANNELS 3 Zrotation Xrotation Yrotation
                    End Site
                    {
                      OFFSET 0 0 0
                    }
                  }
                }
              }
            }
            JOINT Neck
            {
              OFFSET 5.0226 -0.0266342 0
              CHANNELS 3 Zrotation Xrotation Yrotation
              JOINT Head
              {
                OFFSET 6.69364 2.86102e-005 0
                CHANNELS 3 Zrotation Xrotation Yrotation
                End Site
                {
                  OFFSET 0 0 0
                }
              }
            }
          }
        }
      }
    }
  }
}
MOTION
Frames:	18
Frame Time:	0.0416667
-77.0703 93.2578 112.63 101.886 40.1169 83.6098 -178.568 15.6093 87.7341 -8.34041 11.4014 1.24 53.2177 -2.58659 4.20243 40.469 -1.38042 5.24578 175.21 -5.29223 91.3261 -33.6793 -4.51271 -1.11577 70.4882 2.06749 16.7839 42.1434 -3.15292 4.48572 0.4647 7.89488 -90.3665 11.0864 0.754869 -0.802434 -0.584628 0.718838 -0.834895 -23.1205 0.961152 -0.538463 -3.10786 0.961132 -0.538467 99.0861 -57.9569 -86.5381 13.2068 -12.5039 -19.9849 -3.53965 -12.153 -27.6753 -13.5407 -0.945544 3.00378 -82.1052 -55.277 90.7797 -30.4493 -7.69967 -8.13411 -0.504983 52.0778 0.000515203 -3.95358 -0.0603405 -6.55641 -4.28001 -0.713809 -1.9939 -29.6383 -0.784728 1.19685 
-70.0419 92.6452 106.83 101.697 39.6286 82.699 -178.917 16.6604 86.5719 -18.239 16.9989 1.38181 48.8429 -6.22518 10.079 39.3349 -1.1472 -0.0361428 173.967 -6.82273 88.2871 -37.8843 -7.73863 -1.35812 58.0845 7.14926 20.8225 52.7043 -4.55593 12.0786 0.406072 7.71595 -89.946 11.4423 0.833163 0.0228118 -0.228402 0.833346 -0.0138932 -22.7655 0.787787 0.272174 -2.7529 0.787782 0.272162 99.7567 -59.1825 -85.5398 16.2253 -12.8375 -14.4032 -4.08512 -12.3928 -28.3194 -13.3009 -0.808502 1.93162 -81.7993 -55.1651 91.2098 -28.9922 -8.31442 -8.74106 -0.2339 49.223 0.00141289 -4.35545 -0.0545458 -6.4488 -6.43086 -0.878597 -4.49157 -28.9798 -1.31103 3.62678 
-63.949 92.0712 101.788 102.619 39.5744 80.5767 -177.564 16.5222 84.8408 -30.1487 16.9972 0.767712 57.7586 -1.12831 14.4992 33.6066 -0.308311 -3.31728 171.459 0.11066 82.9868 -51.8548 -11.4896 -1.10866 43.6219 12.5649 22.6938 49.4763 -3.59938 17.181 0.17616 7.71625 -89.5221 11.4386 0.573841 0.897414 -0.232539 0.612761 0.871286 -22.7656 0.277606 1.02837 -2.75294 0.277597 1.02837 99.8876 -59.1687 -85.3575 21.3281 -11.5615 -8.29502 -4.07247 -15.9866 -24.4979 -13.5284 -0.84183 2.09272 -82.3924 -55.0435 90.3522 -27.0574 -7.68062 -11.604 -0.532664 47.5546 0.00178197 -3.76222 -0.0604574 -6.95773 -6.49936 -0.325085 -4.6407 -28.9702 -0.808786 3.90003 
-58.2929 92.8609 97.174 104.521 39.7855 80.0669 -176.611 10.7021 85.7528 -31.86 17.732 1.13755 62.0679 2.36403 16.0189 36.8161 -0.725495 -3.8077 171.745 11.2077 84.5673 -62.9004 -12.3025 -1.13585 47.1321 10.6184 19.4347 36.901 -2.23088 11.2918 -0.155691 7.9719 -89.5484 10.9301 -0.101015 0.90561 -0.741147 -0.0610631 0.909165 -23.2741 -0.368511 0.833388 -3.2615 -0.368511 0.833383 100.204 -59.3063 -84.9109 23.7929 -7.15596 -7.07469 -1.44082 -19.6908 -15.6809 -12.8566 -0.867137 2.73038 -82.8124 -55.6242 89.7968 -25.7015 -7.35205 -19.3061 -0.0414514 45.4326 0.0014301 -1.32601 -0.106699 -6.37782 -6.48257 0.949368 -2.75246 -28.9621 0.0766887 4.99618 
-52.7405 93.8458 92.7161 104.982 42.5747 81.1735 -176.595 5.39592 87.2868 -31.0428 19.6971 2.70591 64.5126 5.1214 16.3792 39.5213 -1.1256 -3.39783 170.817 18.4535 86.7205 -56.5137 -9.11105 0.74723 53.8607 7.87429 20.5117 28.718 -0.0909555 1.17619 -0.54403 7.96971 -89.8148 10.9366 -0.997377 0.462932 -0.734031 -0.976034 0.506374 -23.2722 -1.0904 0.141742 -3.2595 -1.0904 0.141738 101.048 -59.711 -83.7268 24.9166 -2.19512 -3.71322 -0.161546 -21.1756 -10.9522 -12.0279 -0.911089 3.73851 -82.4433 -54.7286 90.2549 -26.5479 -5.17795 -28.3045 0.0985735 44.5398 0.000242737 1.1163 -0.144001 -6.12544 -8.34809 1.95747 -2.92067 -29.7429 0.654469 6.58742 
-47.2878 94.4355 88.5157 105.422 44.4216 80.885 -176.061 -0.211593 88.0223 -28.0895 21.5224 3.43683 65.7861 7.45495 16.5274 41.9983 -1.47971 -1.43151 170.716 18.4561 86.366 -34.5824 0.520738 2.49811 55.4537 7.56179 22.4668 23.2229 1.5841 -0.746786 -0.693351 7.94155 -89.9429 10.9927 -1.35377 0.242804 -0.677622 -1.34178 0.302148 -23.2184 -1.36414 -0.175358 -3.20576 -1.36415 -0.175371 101.609 -59.675 -82.9474 25.8246 0.704023 0.559961 -0.220806 -21.5427 -9.94372 -10.7423 -0.917215 4.89426 -82.9863 -53.0903 89.3337 -25.7075 -0.798187 -32.6831 -0.453717 41.1466 -1.82747 0.155972 -0.154095 -7.15624 -8.94125 2.40136 -2.7685 -29.7982 1.05431 6.67901 
-41.5709 94.5441 84.3034 104.956 45.1638 79.2786 -175.719 -7.04695 88.0592 -23.6529 22.8099 3.15385 64.9232 8.51078 16.788 46.9551 -2.02028 0.238931 174.612 16.133 84.195 -12.316 7.95904 0.181074 54.4855 9.74437 25.7079 16.0824 3.86381 -2.96674 -0.699017 7.83066 -89.9101 11.2146 -1.34931 0.311267 -0.455757 -1.33433 0.370354 -22.9965 -1.38049 -0.108732 -2.98386 -1.38049 -0.108732 101.589 -59.5187 -82.9764 25.8425 3.10598 2.80458 0.361088 -21.1893 -7.7538 -9.70187 -0.714668 3.56283 -82.7739 -52.9149 89.6296 -23.8023 3.16022 -34.6145 6.4116 38.2955 -14.4824 1.40945 -0.201503 -7.76594 -8.78372 2.02203 -0.578542 -30.5883 1.01493 4.4799 
-35.2598 93.5897 79.9458 105.303 47.1389 78.1353 -176.915 -9.27829 87.9224 -28.6961 25.5596 4.63964 64.4554 9.37937 17.6624 53.6019 -2.19956 5.40651 174.745 16.6695 82.9837 -13.0921 5.39779 0.0876678 50.8507 11.2377 19.4572 22.8757 1.91783 -3.11125 -0.792245 7.72522 -90.0582 11.4238 -1.60335 0.0467493 -0.246147 -1.59976 0.117286 -22.7887 -1.5433 -0.437405 -2.77605 -1.54329 -0.437406 102.237 -59.7755 -82.0755 24.62 3.65504 2.38352 0.236286 -21.5439 -7.31251 -8.49916 -0.616231 3.43908 -82.6873 -53.597 89.813 -23.658 4.99875 -33.0689 11.0429 36.0677 -22.6051 1.17023 -0.198696 -7.88321 -8.87343 1.27317 0.547346 -31.1399 0.411816 3.447 
-28.3158 93.7069 75.5218 105.834 46.7458 79.4537 -177.592 -8.96014 90.7253 -37.8488 22.8812 6.0815 59.5692 3.39883 8.31435 61.555 -2.67312 5.78229 174.577 16.9799 84.955 -23.2964 2.95817 0.628201 51.7648 11.8727 18.9143 21.4033 2.59791 -4.64857 -0.696741 7.61173 -90.5463 11.6437 -1.64198 -0.917971 -0.0264917 -1.68079 -0.844805 -22.5647 -1.29019 -1.36902 -2.55203 -1.2902 -1.36903 102.247 -59.6046 -82.0598 22.5174 2.12619 0.580475 0.135772 -19.6841 -9.11464 -8.96341 -0.708134 4.22034 -82.3264 -55.635 90.49 -25.473 4.49576 -27.2895 11.7266 38.273 -22.6084 1.68464 -0.230001 -8.30592 -10.9107 1.02427 0.625894 -31.0138 -0.118306 4.6477 
-22.1643 93.478 72.1546 106.077 46.7052 80.9968 -176.717 -0.076676 95.1031 -54.2915 13.4527 4.93377 47.1956 -5.36759 -2.30154 55.6721 -3.6547 -4.92794 174.145 16.6264 87.5236 -32.0506 0.123 1.91228 58.4618 9.87514 13.1129 22.663 1.94622 -2.75768 -0.721699 7.57452 -90.9412 11.7093 -1.87718 -1.68219 0.0386756 -1.94937 -1.59796 -22.4936 -1.28497 -2.16846 -2.48098 -1.28494 -2.16846 102.478 -59.6579 -81.7391 19.7482 -1.49871 -3.50809 -0.609584 -17.399 -13.3495 -9.54247 -0.640649 2.78624 -82.3941 -55.0612 90.3508 -30.6438 0.243863 -21.0167 6.21186 42.0622 -11.8583 0.426165 -0.174138 -7.74232 -9.6592 0.490753 -1.41792 -32.0925 -0.865463 5.72462 
-17.0451 93.7305 69.3162 108.362 47.1781 80.4725 -178.007 10.5326 94.2989 -64.9918 10.073 4.54285 50.8423 -1.14589 7.21902 54.6506 -2.5003 3.50108 173.706 12.2763 89.3131 -34.9147 1.39233 2.25044 63.2405 8.95649 12.7717 23.4226 1.44464 -0.75617 -0.67405 7.93532 -91.1417 10.981 -1.87021 -2.08998 -0.690141 -1.96037 -2.00568 -23.2166 -1.15589 -2.5552 -3.20391 -1.15588 -2.5552 102.16 -59.2402 -82.1822 18.1739 -3.91278 -9.53859 -0.871378 -13.9749 -17.6241 -12.6213 -0.695346 1.27242 -83.3762 -54.5362 88.8958 -33.1095 -3.95304 -20.9909 -1.03291 50.0216 1.1223 -2.28238 -0.0886112 -7.19457 -7.59242 -0.651492 -3.9793 -30.795 -1.60548 5.17545 
-12.1904 94.6617 66.4047 107.289 43.1738 80.5224 -177.654 14.8455 91.8052 -55.0427 11.4954 3.2199 55.1325 1.98684 7.64723 58.1323 -1.95616 9.22744 174.188 8.02853 89.1118 -33.5856 0.391296 1.12774 67.132 8.18233 15.2621 20.8506 2.15488 -1.02204 -0.269567 8.09312 -90.9754 10.6767 -0.986007 -1.84942 -0.995166 -1.06642 -1.80426 -23.5204 -0.384732 -2.06017 -3.50776 -0.384738 -2.06017 101.383 -58.2308 -83.2788 18.1412 -5.19066 -14.5287 -2.08451 -12.6791 -22.0691 -13.7705 -0.75298 1.19583 -83.4641 -54.5225 88.7687 -32.9413 -7.34347 -17.7156 1.18268 58.2794 0.00518911 -7.18124 0.0170161 -7.00782 -9.18164 -0.443463 -6.04978 -28.6515 -1.61304 6.96071 
-7.68414 95.2673 63.5405 104.266 39.5326 83.4768 -178.89 15.7535 91.7314 -32.9647 11.1573 2.95712 53.5745 1.11711 6.7749 58.9226 -1.8741 10.0661 174.686 4.79164 90.0504 -30.8377 1.72932 0.566851 70.0146 7.51451 20.1724 18.2512 3.06706 -2.20082 0.012128 8.03197 -91.0028 10.802 -0.438755 -1.95358 -0.870295 -0.524295 -1.93241 -23.3937 0.16853 -1.99512 -3.38104 0.168535 -1.99513 100.722 -57.467 -84.2305 16.4471 -8.99936 -18.1856 -3.30128 -11.7432 -26.3006 -12.236 -0.652899 1.05225 -82.9183 -56.152 89.6895 -30.2254 -7.3405 -11.6228 -0.198873 52.2616 0.0058539 -3.56005 -0.0676571 -6.57649 -8.62047 1.02204 -5.35179 -28.2251 -0.520246 8.78237 
-3.2033 95.6295 60.4981 102.31 37.2675 85.8757 177.786 13.2126 93.1721 -11.1433 21.8975 3.64873 48.606 -2.82181 0.784811 56.8402 -2.43526 5.72234 174.946 1.85031 91.2944 -29.0954 0.452093 0.46588 69.8243 6.17121 20.0346 22.8185 1.59864 -0.735939 0.0566063 7.97709 -90.9685 10.913 -0.335094 -1.89482 -0.759243 -0.418138 -1.87825 -23.2834 0.249767 -1.90794 -3.27074 0.249742 -1.90794 100.476 -57.8269 -84.5711 14.804 -12.0935 -20.1176 -3.50337 -11.085 -27.9808 -12.1606 -0.621236 0.777387 -82.4899 -55.2838 90.2302 -31.4981 -7.72975 -8.2395 -0.280241 48.292 0.00518826 -2.73724 -0.0837544 -6.6296 -8.00422 2.30812 -7.28127 -27.5066 0.282566 12.1651 
1.73193 95.3415 56.7889 101.568 33.8083 87.3419 177.694 13.338 92.3108 -11.6701 30.7017 7.58529 49.2752 -5.69615 -2.53304 56.1181 -3.53934 -3.66504 175.234 -1.01079 91.3701 -29.7504 -1.58072 -0.181257 71.4182 4.03849 19.2818 27.308 0.279502 0.809786 0.217204 7.87474 -90.8243 11.1213 0.0496812 -1.64563 -0.550708 -0.0227786 -1.64623 -23.0781 0.541897 -1.55467 -3.06542 0.5419 -1.55467 100.188 -58.3914 -84.9623 16.565 -11.3985 -18.1773 -3.72463 -13.1881 -25.8565 -12.0931 -0.604103 0.637523 -82.0467 -55.8292 90.9012 -30.3985 -7.49086 -8.69939 -0.561009 50.4731 0.0040317 -6.3298 0.00381242 -7.11143 -8.45538 2.99605 -8.6734 -26.4101 0.862319 13.693 
6.54685 95.1719 52.459 101.349 29.4606 87.0379 178.71 9.28593 91.3916 -10.4321 29.7682 6.01124 46.5814 -6.19081 4.26057 37.9613 -0.880132 -3.18547 175.047 -3.70812 89.6421 -31.3727 -4.59876 -1.71453 69.643 3.71951 19.8913 36.1005 -1.85896 1.72931 0.280258 7.70441 -90.4981 11.4666 0.324893 -1.0254 -0.204715 0.279466 -1.03872 -22.7378 0.61804 -0.88038 -2.72512 0.618059 -0.880374 100.273 -59.8782 -84.7977 18.1414 -9.18553 -15.5072 -1.52325 -16.7728 -18.178 -11.8105 -0.644885 1.20772 -81.6541 -57.15 91.5403 -28.4693 -7.26698 -10.6637 -0.674002 50.8096 0.00182865 -3.22874 -0.0665994 -6.17246 -8.38304 4.19134 -8.18285 -26.2203 1.8875 14.55 
9.9685 94.975 48.7576 100.041 26.6847 87.4992 179.587 11.9153 90.3474 -20.4648 27.7853 5.77239 52.3486 -3.45793 8.34003 36.7418 -0.70519 -3.96609 174.43 -0.254866 86.8618 -38.4219 -8.06566 -1.73312 60.7747 5.85536 20.2508 47.4259 -4.24287 4.4581 0.30469 7.48234 -90.2458 11.9102 0.490111 -0.542858 0.239225 0.465744 -0.563912 -22.2962 0.630626 -0.370457 -2.28355 0.630572 -0.370477 99.8638 -59.7661 -85.3692 22.5076 -2.62388 -10.4706 0.361428 -20.5184 -9.96526 -11.62 -0.718163 2.07309 -81.9983 -56.0527 90.985 -28.8237 -6.22129 -15.8267 -0.395159 50.7534 -0.00086734 -1.50965 -0.103564 -6.10366 -7.63233 5.86936 -7.34299 -24.7721 3.62455 15.2945 
12.2444 94.3491 45.9184 101.245 25.5481 86.5378 -178.661 12.1092 89.4814 -27.4521 27.1287 4.59407 58.1323 -0.508138 9.78609 35.4239 -0.437841 -5.2294 173.293 6.64791 84.5894 -51.6871 -9.20633 -1.71349 50.9177 8.81988 18.5562 42.145 -3.00662 8.80015 0.104899 7.73304 -90.1189 11.409 0.1533 -0.251743 -0.261909 0.142067 -0.258254 -22.7971 0.221873 -0.194029 -2.78449 0.221907 -0.194028 99.6431 -59.2487 -85.6961 23.4563 0.480803 -7.29473 1.35634 -21.5847 -6.1597 -9.79221 -0.646504 2.61101 -82.3155 -55.7713 90.5143 -26.4057 -2.22518 -22.3096 -2.28762 46.1252 0.051585 -0.255513 -0.138 -6.91459 -4.97684 9.54074 -7.1686 -21.9831 7.46592 17.6232 
